<?xml version="1.0" encoding="utf-8"?>
<!-- Generator: Adobe Illustrator 16.0.0, SVG Export Plug-In . SVG Version: 6.00 Build 0)  -->
<!DOCTYPE svg PUBLIC "-//W3C//DTD SVG 1.1//EN" "http://www.w3.org/Graphics/SVG/1.1/DTD/svg11.dtd">
<svg version="1.1" id="Layer_1" xmlns="http://www.w3.org/2000/svg" xmlns:xlink="http://www.w3.org/1999/xlink" x="0px" y="0px"
	 width="277.769px" height="40px" viewBox="0 0 277.769 40" enable-background="new 0 0 277.769 40" xml:space="preserve">
<g>
	<g>
		<path d="M111.315,14.205H93.888c-0.702,0-1.271-0.568-1.271-1.27c0-0.703,0.569-1.271,1.271-1.271h17.427
			c0.701,0,1.27,0.568,1.27,1.271C112.585,13.637,112.016,14.205,111.315,14.205z"/>
	</g>
	<g>
		<path d="M104.547,35.67c-0.985,0-3.035,0-3.035-2.23V16.385c0-0.703,0.569-1.271,1.271-1.271c0.702,0,1.271,0.568,1.271,1.271
			v16.738c0.163,0.004,0.348,0.004,0.494,0.004c0.702,0,1.271,0.57,1.271,1.271S105.249,35.67,104.547,35.67z"/>
	</g>
	<g>
		<path d="M206.299,36.218c-1.857,0-3.663-0.52-5.032-1.556c-1.925-1.457-3.284-3.565-3.726-5.782
			c-0.094-0.468-0.027-0.906,0.02-1.226c0.013-0.089,0.031-0.208,0.031-0.25c0.015-0.704,0.589-1.277,1.291-1.277
			c0.004,0,0.008,0,0.013,0c0.708,0.007,1.278,0.57,1.278,1.277c0,0.228-0.031,0.441-0.06,0.629
			c-0.019,0.117-0.045,0.295-0.039,0.359c0.149,0.742,0.721,2.676,2.749,4.211c1.862,1.41,5.084,1.385,7.334-0.057
			c1.212-0.778,2.051-2.154,2.242-3.685c0.16-1.282-0.174-2.474-0.918-3.271c-0.806-0.863-2.732-0.884-4.597-0.904
			c-2.229-0.023-4.535-0.049-6.081-1.412c-2.393-2.109-2.916-5.229-1.3-7.762c1.282-2.01,3.825-3.211,6.8-3.211
			c2.599,0,5.353,1.59,6.515,3.127c1.237,1.635,1.233,3.246,1.229,3.424c-0.019,0.714-0.613,1.277-1.323,1.258
			c-0.707-0.017-1.267-0.601-1.259-1.305c0-0.062-0.023-0.918-0.707-1.82c-0.75-0.993-2.766-2.102-4.455-2.102
			c-1.613,0-3.675,0.53-4.623,2.018c-0.919,1.439-0.594,3.182,0.83,4.436c0.826,0.73,2.645,0.75,4.403,0.77
			c2.406,0.025,4.894,0.053,6.453,1.722c1.27,1.358,1.851,3.31,1.595,5.355c-0.286,2.28-1.562,4.349-3.412,5.536
			C209.991,35.72,208.12,36.218,206.299,36.218z"/>
	</g>
	<g>
		<path d="M184.855,35.956c-6.021,0.001-10.606-5.116-10.689-11.956c-0.073-6.042,3.207-10.518,8.164-11.138
			c0.704-0.089,1.352,0.413,1.441,1.12c0.088,0.707-0.414,1.353-1.121,1.441c-3.587,0.448-5.961,3.883-5.904,8.546
			c0.064,5.38,3.547,9.406,8.112,9.406c0.029,0,0.058,0,0.087-0.001c4.771-0.053,8.236-4.002,8.236-9.39
			c0-6.275-3.746-9.132-7.228-9.132c-0.714,0-1.291-0.578-1.291-1.291s0.577-1.291,1.291-1.291c5.685,0,9.81,4.926,9.81,11.714
			c0,6.865-4.539,11.9-10.789,11.971C184.936,35.956,184.895,35.956,184.855,35.956z"/>
	</g>
	<g>
		<path d="M162.538,36.023c-2.97,0-5.365-0.877-7.122-2.607c-2.073-2.043-3.169-5.266-3.169-9.32c0-7.43,4.006-11.863,10.716-11.863
			c6.182,0,8.849,4.356,9.394,6.661c0.162,0.683-0.26,1.367-0.943,1.529c-0.68,0.161-1.363-0.258-1.527-0.937
			c-0.053-0.207-1.254-4.713-6.923-4.713c-7.112,0-8.175,5.84-8.175,9.322c0,2.342,0.419,5.547,2.411,7.511
			c1.299,1.278,3.159,1.914,5.526,1.875c4.243-0.062,5.545-1.547,6.194-3.757c0.412-1.405,0.432-2.559,0.036-3.901h-2.82
			c-0.701,0-1.271-0.568-1.271-1.271s0.569-1.27,1.271-1.27h3.727c0.524,0,0.995,0.32,1.185,0.809
			c0.869,2.233,0.962,4.133,0.312,6.348c-1.098,3.739-3.828,5.513-8.595,5.582C162.688,36.023,162.613,36.023,162.538,36.023z"/>
	</g>
	<g>
		<path d="M113.369,35.975c-0.726,0-1.267-0.25-1.474-0.363c-0.616-0.336-0.843-1.107-0.507-1.723
			c0.335-0.617,1.107-0.844,1.723-0.509c0.062,0.031,0.288,0.122,0.618-0.045c0.321-0.161,0.343-0.497,0.343-0.596
			c-0.006-0.05-0.001-0.004-0.001-0.054l0.089-19.756c0.004-0.7,0.572-1.266,1.271-1.266h8.794c2.938,0,5.132,4.062,5.132,7.693
			c0,3.449-1.858,5.749-4.97,6.15c-1.497,0.193-5.364,0.1-5.799,0.088c-0.702-0.018-1.255-0.602-1.238-1.303
			c0.019-0.701,0.613-1.258,1.303-1.237c1.13,0.029,4.306,0.074,5.409-0.068c0.681-0.088,2.753-0.356,2.753-3.63
			c0-2.744-1.614-5.152-2.591-5.152h-7.53l-0.083,18.458c0.03,0.778-0.301,2.222-1.744,2.944
			C114.322,35.881,113.811,35.975,113.369,35.975z"/>
	</g>
	<g>
		<path d="M128.346,36.064c-0.042,0-0.084-0.001-0.127-0.005c-0.709-0.069-1.228-0.702-1.159-1.41
			c0.002-0.021,0.204-2.217-0.237-4.347c-0.344-1.656-0.619-2.226-0.69-2.352c-0.398-0.445-0.446-1.121-0.081-1.622
			c0.419-0.576,1.227-0.702,1.803-0.282c0.364,0.266,0.917,0.942,1.495,3.732c0.524,2.524,0.289,5.016,0.279,5.121
			C129.564,35.566,129.002,36.064,128.346,36.064z"/>
	</g>
	<g>
		<path d="M151.584,35.721c-1.489,0-2.612-0.789-3.089-1.328c-0.098-0.109-0.174-0.236-0.228-0.372l-6.813-17.157l-3.647,9.323
			h6.183c0.701,0,1.271,0.569,1.271,1.271s-0.57,1.271-1.271,1.271h-8.045c-0.419,0-0.812-0.207-1.049-0.555
			s-0.287-0.789-0.135-1.18l5.5-14.059c0.191-0.486,0.659-0.807,1.181-0.809c0.002,0,0.003,0,0.003,0
			c0.521,0,0.989,0.318,1.182,0.803l7.898,19.889c0.218,0.169,0.705,0.459,1.392,0.329c0.688-0.129,1.354,0.323,1.485,1.013
			c0.129,0.689-0.324,1.354-1.014,1.484C152.11,35.697,151.842,35.721,151.584,35.721z"/>
	</g>
	<g>
		<path d="M133.12,36.064c-0.152,0-0.309-0.027-0.459-0.084c-0.666-0.253-1.001-0.999-0.747-1.666l1.464-3.843
			c0.254-0.665,1-0.999,1.665-0.747c0.667,0.255,1.001,1,0.746,1.667l-1.462,3.842C134.13,35.748,133.64,36.064,133.12,36.064z"/>
	</g>
	<g>
		<path d="M55.644,36.1c-0.305,0-0.623-0.023-0.956-0.07c-1.062-0.156-1.595-0.388-2.484-1.083c-0.562-0.44-0.661-1.251-0.222-1.812
			c0.439-0.562,1.25-0.662,1.812-0.223c0.559,0.438,0.668,0.476,1.265,0.562c1.943,0.279,2.98-0.799,4.717-3.489
			c0.435-0.674,0.983-1.462,2-2.298c0.551-0.452,1.365-0.373,1.816,0.178c0.453,0.551,0.373,1.363-0.178,1.816
			c-0.664,0.547-1.029,1.02-1.47,1.703C60.337,33.877,58.633,36.1,55.644,36.1z"/>
	</g>
	<g>
		<path d="M45.533,36.064c-2.263,0-3.285-1.297-3.468-2.488c-0.264-1.709,1.04-3.818,3.678-4.389
			c0.877-0.19,1.483-0.245,2.359-0.014c0.689,0.181,1.101,0.887,0.919,1.577c-0.182,0.688-0.889,1.099-1.577,0.919
			c-0.349-0.094-0.521-0.098-1.155,0.039c-1.208,0.262-1.731,1.099-1.673,1.475c0.03,0.194,0.517,0.354,1.281,0.282
			c2.309-0.214,3.828-2.476,5.296-4.66c0.14-0.209,0.278-0.413,0.415-0.614c1.013-1.486,1.648-4.246,2.263-6.915
			c0.975-4.235,1.896-8.236,4.601-9.247c1.157-0.433,2.359-0.183,3.298,0.686c1.319,1.219,1.817,3.393,1.241,5.412
			c-0.468,1.635-2.009,4.484-7.075,5.645c-0.551,2.252-1.192,4.402-2.195,5.875c-0.133,0.195-0.268,0.395-0.405,0.598
			c-1.636,2.434-3.67,5.464-7.2,5.792C45.926,36.057,45.725,36.064,45.533,36.064z M59.582,14.404c-0.076,0-0.145,0.02-0.207,0.043
			c-1.262,0.471-2.1,3.601-2.768,6.456c2.777-0.956,3.65-2.534,3.921-3.487c0.347-1.211,0.006-2.328-0.51-2.805
			C59.849,14.455,59.706,14.404,59.582,14.404z"/>
	</g>
	<g>
		<path d="M51.466,24.584c-0.009,0-0.017,0-0.025,0l-0.251-0.002c-0.572-0.005-1.436-0.013-2.677-0.178
			c-2.472-0.332-4.523-2.368-4.877-4.843c-0.374-2.613,1.167-4.957,4.122-6.27c0.651-0.289,1.414,0.004,1.703,0.655
			c0.29,0.652-0.004,1.414-0.656,1.703c-1.893,0.842-2.821,2.101-2.614,3.547c0.19,1.331,1.336,2.469,2.665,2.648
			c1.081,0.145,1.847,0.151,2.354,0.155l0.28,0.002c0.713,0.015,1.28,0.604,1.266,1.315C52.743,24.023,52.167,24.584,51.466,24.584z
			"/>
	</g>
	<g>
		<path d="M83.251,36.205c-0.74,0-1.471-0.159-2.146-0.484c-1.282-0.617-2.128-1.703-2.22-1.826c-0.43-0.568-0.318-1.377,0.25-1.808
			c0.568-0.43,1.378-0.319,1.808,0.25c0.002,0.001,0.551,0.707,1.282,1.059c0.966,0.466,2.213,0.207,3.175-0.659
			c0.984-0.885,0.504-2.485-0.173-4.332l-0.036-0.098c-0.132-0.36-0.241-0.748-0.332-1.145c-1.386,1.735-3.437,3.063-6.26,2.663
			c-0.706-0.101-1.197-0.753-1.098-1.459c0.1-0.706,0.753-1.2,1.459-1.097c1.708,0.239,3.092-0.478,4.228-2.196
			c0.916-1.386,1.284-2.896,1.288-2.911c0.15-0.646,0.764-1.072,1.423-0.987c0.658,0.086,1.144,0.657,1.124,1.319
			c0,0.031-0.084,3.078,0.591,4.926l0.036,0.096c0.642,1.753,1.839,5.016-0.524,7.141C85.997,35.671,84.608,36.205,83.251,36.205z"
			/>
	</g>
	<g>
		<path d="M274.345,36.897c-1.348,0-2.719-0.523-3.457-1.964c-1.002-1.952,0.103-5.537,1.177-8.443l0.094-0.257
			c0.353-0.974,0.405-1.86,0.132-2.257c-0.238-0.348-0.86-0.433-1.342-0.444c-1.807-0.046-3.604,2.251-4.698,4.409
			c-0.043,0.085-1.194,2.318-1.404,2.722l-1.719,4.468c-0.255,0.665-1.001,0.997-1.668,0.742c-0.513-0.198-0.827-0.688-0.827-1.205
			c-0.001-0.154,0.028-0.311,0.087-0.463l1.736-4.516c0.378-1.079,0.816-2.388,0.874-2.636c0.466-2.223,0.134-3.021-0.03-3.261
			c-0.079-0.115-0.192-0.228-0.498-0.277c-2.124-0.342-4.654,2.525-6.232,5.555l-2.121,6.025c-0.235,0.673-0.973,1.027-1.646,0.789
			c-0.531-0.188-0.863-0.684-0.863-1.217c0-0.143,0.023-0.287,0.074-0.429l2.187-6.257c0.409-1.533,0.97-3.634,0.573-4.295
			c-0.025-0.041-0.076-0.128-0.334-0.189c-1.607-0.376-2.566,1.37-2.996,2.445c-0.535,1.343-1.79,2.427-3.357,2.902
			c-0.682,0.207-1.403-0.18-1.609-0.862c-0.206-0.681,0.179-1.402,0.861-1.609c0.635-0.192,1.417-0.657,1.708-1.388
			c1.234-3.098,3.472-4.592,5.986-4c0.862,0.203,1.54,0.68,1.956,1.375c0.201,0.336,0.333,0.7,0.409,1.091
			c1.547-1.594,3.542-2.858,5.821-2.483c0.939,0.154,1.704,0.626,2.211,1.365c0.259,0.379,0.447,0.818,0.566,1.323
			c1.225-1.433,2.882-2.706,4.903-2.706c0.036,0,0.071,0,0.107,0c1.965,0.045,2.941,0.876,3.414,1.566
			c1.041,1.519,0.551,3.528,0.167,4.594l-0.102,0.273c-1.775,4.805-1.445,6.09-1.301,6.371c0.367,0.717,1.438,0.592,2.067,0.407
			c0.104-0.24,0.281-0.452,0.522-0.597c0.606-0.364,1.395-0.171,1.764,0.432c0.229,0.371,0.291,0.847,0.17,1.27
			c-0.129,0.453-0.453,0.828-0.914,1.061C276.112,36.67,275.233,36.897,274.345,36.897z"/>
	</g>
	<g>
		<path d="M226.152,36.02c-0.873,0-1.789-0.182-2.658-0.622c-3.009-1.521-3.265-5.212-2.569-7.909
			c0.669-2.592,2.577-5.031,4.751-6.068c1.363-0.651,2.716-0.708,3.909-0.164c1.106,0.504,1.499,1.309,1.634,1.895
			c0.383,1.665-0.912,3.337-1.174,3.655c-0.455,0.549-1.27,0.626-1.817,0.171c-0.55-0.453-0.627-1.264-0.175-1.814
			c0.419-0.515,0.721-1.246,0.648-1.438l0,0c0,0-0.039-0.052-0.188-0.119c-0.483-0.22-1.062-0.172-1.727,0.145
			c-1.476,0.704-2.89,2.548-3.362,4.385c-0.457,1.77-0.407,4.13,1.234,4.962c1.163,0.588,2.602,0.352,3.365-0.17
			c1.212-0.829,1.803-1.486,2.635-2.928c0.356-0.618,1.146-0.829,1.763-0.474c0.618,0.355,0.83,1.146,0.475,1.763
			c-1.022,1.771-1.884,2.723-3.416,3.77C228.662,35.615,227.455,36.02,226.152,36.02z"/>
	</g>
	<g>
		<path d="M69.457,36.334c-0.647,0-1.31-0.113-1.961-0.37c-3.425-1.349-3.381-5.979-2.547-8.58c0.557-1.742,1.84-4.034,3.772-5.245
			c1.564-0.978,2.955-1.224,4.382-0.773c0.743,0.233,1.207,0.646,1.417,0.871c0.486,0.521,0.457,1.338-0.065,1.824
			c-0.521,0.484-1.337,0.456-1.823-0.063c-0.009-0.009-0.112-0.11-0.304-0.171c-0.575-0.181-1.174-0.164-2.236,0.5
			c-1.257,0.788-2.254,2.498-2.685,3.844c-0.494,1.543-0.697,4.71,1.035,5.393c1.292,0.508,2.826-0.096,3.563-0.975
			c0.971-1.159,1.355-2.312,1.659-3.795c0.279-1.359-0.021-2.033-0.024-2.04c-0.298-0.646-0.018-1.415,0.628-1.714
			c0.646-0.299,1.411-0.021,1.712,0.623c0.201,0.432,0.624,1.649,0.213,3.649c-0.324,1.581-0.816,3.272-2.21,4.936
			C72.994,35.425,71.286,36.334,69.457,36.334z"/>
	</g>
	<g>
		<path d="M217.166,36.021c-0.711,0-1.289-0.578-1.289-1.29c0-0.655,0.486-1.195,1.118-1.28c0-0.012-0.001-0.023-0.001-0.034
			c-0.086-0.708,0.42-1.339,1.128-1.424c0.704-0.089,1.352,0.431,1.438,1.138c0.024,0.212,0.116,1.312-0.609,2.133
			C218.643,35.609,218.085,36.021,217.166,36.021z"/>
	</g>
	<g>
		<path d="M238.756,36.068c-0.648,0-1.311-0.113-1.962-0.371c-3.425-1.348-3.38-5.979-2.547-8.58
			c0.557-1.742,1.841-4.035,3.772-5.244c1.562-0.979,2.954-1.225,4.381-0.774c0.734,0.231,1.194,0.636,1.402,0.856
			c0.49,0.518,0.468,1.335-0.051,1.824c-0.517,0.49-1.334,0.467-1.824-0.051c-0.008-0.008-0.111-0.108-0.303-0.168
			c-0.574-0.181-1.174-0.165-2.236,0.5c-1.256,0.787-2.253,2.497-2.684,3.844c-0.494,1.543-0.697,4.71,1.035,5.392
			c1.293,0.51,2.826-0.095,3.562-0.974c0.973-1.16,1.355-2.312,1.66-3.795c0.278-1.358-0.021-2.032-0.023-2.039
			c-0.298-0.646-0.019-1.414,0.627-1.713c0.645-0.301,1.409-0.024,1.711,0.62c0.201,0.431,0.625,1.647,0.214,3.65
			c-0.374,1.826-0.893,3.363-2.21,4.935C242.293,35.159,240.584,36.068,238.756,36.068z"/>
	</g>
	<g>
		<path fill="#EE2B36" d="M17.737,5.951c-1.382,0-2.624-0.971-2.913-2.376c-0.078-0.38,0.167-0.752,0.546-0.83
			c0.378-0.079,0.751,0.166,0.83,0.547c0.175,0.847,1.007,1.396,1.854,1.222c0.41-0.086,0.764-0.324,0.994-0.675
			c0.23-0.35,0.311-0.769,0.227-1.18c-0.084-0.41-0.324-0.764-0.674-0.994s-0.769-0.312-1.18-0.227
			c-0.657,0.135-0.787,0.298-0.865,0.453c-0.173,0.347-0.594,0.488-0.942,0.315c-0.347-0.173-0.489-0.595-0.315-0.942
			c0.403-0.81,1.156-1.062,1.839-1.203c0.777-0.16,1.572-0.007,2.235,0.43c0.664,0.438,1.117,1.106,1.277,1.885
			c0.16,0.778,0.007,1.573-0.43,2.236s-1.106,1.116-1.885,1.276C18.136,5.931,17.936,5.951,17.737,5.951z"/>
	</g>
	<g>
		<path fill="#EE2B36" d="M25.11,4.785c-0.915,0-1.738-0.643-1.929-1.572c-0.078-0.38,0.167-0.752,0.547-0.83
			c0.381-0.077,0.751,0.167,0.829,0.547c0.062,0.305,0.361,0.501,0.667,0.439c0.147-0.03,0.274-0.116,0.357-0.242
			s0.112-0.276,0.082-0.425c-0.036-0.177-0.128-0.333-0.252-0.431c-0.104-0.082-0.219-0.111-0.339-0.087
			c-0.38,0.078-0.751-0.166-0.83-0.546c-0.078-0.38,0.167-0.752,0.546-0.83c0.529-0.11,1.059,0.019,1.491,0.357
			c0.387,0.305,0.657,0.749,0.761,1.254c0.105,0.515,0.005,1.04-0.285,1.479s-0.732,0.739-1.248,0.846
			C25.374,4.772,25.241,4.785,25.11,4.785z"/>
	</g>
	<g>
		<path fill="#EE2B36" d="M22.891,10.846c-1.019,0-1.423-0.591-1.707-1.234c-0.156-0.354,0.004-0.77,0.359-0.926
			c0.354-0.156,0.77,0.004,0.927,0.359c0.179,0.404,0.194,0.402,0.466,0.395c0.119-0.004,0.228-0.054,0.309-0.14
			c0.081-0.087,0.123-0.199,0.119-0.317c-0.008-0.245-0.157-0.5-0.378-0.486c-0.393,0.007-0.712-0.291-0.725-0.679
			c-0.013-0.389,0.292-0.714,0.679-0.726c0.992-0.031,1.794,0.777,1.829,1.845c0.017,0.494-0.161,0.964-0.498,1.323
			c-0.337,0.361-0.795,0.567-1.288,0.584C22.952,10.846,22.921,10.846,22.891,10.846z"/>
	</g>
	<g>
		<path fill="#EE2B36" d="M16.759,36.627c-1.72,0-3.446-0.195-5.093-0.593c-0.377-0.091-0.609-0.47-0.519-0.848
			c0.091-0.376,0.47-0.61,0.847-0.518c3.612,0.869,7.627,0.712,11.013-0.433c0.368-0.123,0.766,0.074,0.89,0.441
			s-0.073,0.766-0.44,0.891C21.375,36.271,19.072,36.627,16.759,36.627z"/>
	</g>
	<g>
		<path fill="#EE2B36" d="M16.035,19.369c-2.594,0-5.052-0.193-6.634-0.578c-1.312-0.32-2.83-0.832-2.926-1.967
			c-0.093-1.096,1.274-1.744,1.549-1.863c0.356-0.152,0.77,0.01,0.924,0.366c0.154,0.356-0.01,0.77-0.366,0.925
			c-0.264,0.114-0.562,0.319-0.673,0.453c0.124,0.116,0.543,0.408,1.824,0.72c4.753,1.158,13.845,0.356,16.029-0.731
			c0.165-0.082,0.29-0.154,0.383-0.214c-0.209-0.073-0.485-0.142-0.731-0.178c-0.384-0.055-0.651-0.411-0.596-0.795
			s0.409-0.65,0.793-0.597c0.743,0.104,2.012,0.418,2.161,1.337c0.153,0.938-0.963,1.493-1.383,1.703
			C24.492,18.896,20.096,19.369,16.035,19.369z"/>
	</g>
	<g>
		<path fill="#EE2B36" d="M8.118,37.59c-0.265,0-0.519-0.15-0.638-0.408c-0.347-0.75-0.503-1.477-0.509-1.508l-0.731-4.086
			L4.343,20.296l-1.726-9.36c-0.061-0.277-0.298-0.959-0.625-1.164C1.928,9.729,1.86,9.709,1.747,9.734
			C1.575,9.775,1.451,9.839,1.421,9.901c-0.052,0.112,0.023,0.356,0.054,0.418c0.174,0.347,0.035,0.77-0.312,0.944
			c-0.347,0.175-0.769,0.035-0.943-0.312c-0.045-0.089-0.425-0.887-0.072-1.644c0.153-0.328,0.499-0.757,1.275-0.94
			c0.469-0.11,0.926-0.034,1.324,0.218c0.911,0.581,1.216,1.929,1.248,2.081l1.73,9.387l1.897,11.295l0.726,4.057l0,0
			c0,0,0.131,0.595,0.406,1.188c0.163,0.353,0.009,0.77-0.343,0.934C8.317,37.568,8.216,37.59,8.118,37.59z"/>
	</g>
	<g>
		<path fill="#EE2B36" d="M17.224,40c-3.467-0.001-5.817-0.245-7.395-0.771c-0.369-0.122-0.568-0.521-0.445-0.888
			c0.123-0.368,0.521-0.568,0.888-0.445c1.881,0.625,4.869,0.699,6.952,0.699c2.51,0,6.042-0.108,7.731-1.028
			c0.815-0.444,1.046-1.655,1.146-2.171c0.878-4.591,3.178-18.519,3.201-18.659l1.147-6.06c0.034-0.164,0.339-1.512,1.25-2.092
			c0.398-0.253,0.856-0.329,1.324-0.219c0.777,0.183,1.123,0.611,1.275,0.939c0.353,0.758-0.027,1.556-0.072,1.645
			c-0.174,0.348-0.597,0.485-0.943,0.312c-0.344-0.174-0.484-0.592-0.315-0.938c0.053-0.113,0.104-0.328,0.057-0.426
			c-0.03-0.062-0.154-0.125-0.324-0.165c-0.115-0.026-0.181-0.006-0.246,0.036c-0.326,0.206-0.564,0.887-0.629,1.184l-1.141,6.027
			c-0.021,0.125-2.323,14.07-3.205,18.679c-0.137,0.712-0.456,2.378-1.854,3.14C24.107,39.63,21.516,39.999,17.224,40z"/>
	</g>
</g>
</svg>
